<?xml version="1.0" encoding="UTF-8"?>
<svg xmlns="http://www.w3.org/2000/svg" width="451" height="130" viewBox="0 0 451 130" fill="none">
  <path d="M127.564 57.09H116.196V51.7H145.302V57.09H133.934V86H127.564V57.09ZM153.723 63.656C155.487 60.912 158.591 59.54 163.033 59.54V65.371C162.511 65.273 162.037 65.224 161.612 65.224C159.228 65.224 157.366 65.9263 156.026 67.331C154.687 68.703 154.017 70.6957 154.017 73.309V86H147.892V59.834H153.723V63.656ZM192.822 59.834V86H186.991V82.668C186.011 83.844 184.786 84.7587 183.316 85.412C181.846 86.0327 180.261 86.343 178.563 86.343C175.067 86.343 172.307 85.3793 170.282 83.452C168.289 81.492 167.293 78.601 167.293 74.779V59.834H173.418V73.946C173.418 76.298 173.94 78.062 174.986 79.238C176.064 80.3813 177.583 80.953 179.543 80.953C181.731 80.953 183.463 80.2833 184.737 78.944C186.043 77.572 186.697 75.612 186.697 73.064V59.834H192.822ZM207.946 86.343C205.823 86.343 203.749 86.0653 201.723 85.51C199.698 84.9547 198.081 84.2523 196.872 83.403L199.224 78.748C200.4 79.532 201.805 80.169 203.438 80.659C205.104 81.1163 206.738 81.345 208.338 81.345C211.997 81.345 213.826 80.3813 213.826 78.454C213.826 77.5393 213.353 76.9023 212.405 76.543C211.491 76.1837 210.004 75.8407 207.946 75.514C205.79 75.1873 204.026 74.8117 202.654 74.387C201.315 73.9623 200.139 73.2273 199.126 72.182C198.146 71.104 197.656 69.6177 197.656 67.723C197.656 65.2403 198.685 63.264 200.743 61.794C202.834 60.2913 205.643 59.54 209.171 59.54C210.968 59.54 212.765 59.7523 214.561 60.177C216.358 60.569 217.828 61.108 218.971 61.794L216.619 66.449C214.398 65.1423 211.899 64.489 209.122 64.489C207.326 64.489 205.954 64.7667 205.006 65.322C204.092 65.8447 203.634 66.547 203.634 67.429C203.634 68.409 204.124 69.1113 205.104 69.536C206.117 69.928 207.669 70.3037 209.759 70.663C211.85 70.9897 213.565 71.3653 214.904 71.79C216.244 72.2147 217.387 72.9333 218.334 73.946C219.314 74.9587 219.804 76.396 219.804 78.258C219.804 80.708 218.743 82.668 216.619 84.138C214.496 85.608 211.605 86.343 207.946 86.343ZM239.828 84.579C239.109 85.167 238.227 85.608 237.182 85.902C236.169 86.196 235.091 86.343 233.948 86.343C231.073 86.343 228.852 85.5917 227.284 84.089C225.716 82.5863 224.932 80.3977 224.932 77.523V64.93H220.62V60.03H224.932V54.052H231.057V60.03H238.064V64.93H231.057V77.376C231.057 78.65 231.367 79.63 231.988 80.316C232.609 80.9693 233.507 81.296 234.683 81.296C236.055 81.296 237.198 80.9367 238.113 80.218L239.828 84.579ZM267.623 73.064C267.623 73.4887 267.591 74.093 267.525 74.877H246.994C247.354 76.8043 248.285 78.3397 249.787 79.483C251.323 80.5937 253.217 81.149 255.471 81.149C258.346 81.149 260.714 80.2017 262.576 78.307L265.859 82.08C264.683 83.4847 263.197 84.5463 261.4 85.265C259.604 85.9837 257.578 86.343 255.324 86.343C252.45 86.343 249.918 85.7713 247.729 84.628C245.541 83.4847 243.842 81.9003 242.633 79.875C241.457 77.817 240.869 75.4977 240.869 72.917C240.869 70.369 241.441 68.0823 242.584 66.057C243.76 63.999 245.377 62.3983 247.435 61.255C249.493 60.1117 251.813 59.54 254.393 59.54C256.941 59.54 259.212 60.1117 261.204 61.255C263.23 62.3657 264.798 63.95 265.908 66.008C267.052 68.0333 267.623 70.3853 267.623 73.064ZM254.393 64.44C252.433 64.44 250.767 65.028 249.395 66.204C248.056 67.3473 247.239 68.8827 246.945 70.81H261.792C261.531 68.9153 260.731 67.38 259.391 66.204C258.052 65.028 256.386 64.44 254.393 64.44ZM298.154 49.642V86H292.274V82.619C291.261 83.8603 290.003 84.7913 288.501 85.412C287.031 86.0327 285.397 86.343 283.601 86.343C281.085 86.343 278.815 85.7877 276.79 84.677C274.797 83.5663 273.229 81.9983 272.086 79.973C270.942 77.915 270.371 75.563 270.371 72.917C270.371 70.271 270.942 67.9353 272.086 65.91C273.229 63.8847 274.797 62.3167 276.79 61.206C278.815 60.0953 281.085 59.54 283.601 59.54C285.332 59.54 286.916 59.834 288.354 60.422C289.791 61.01 291.016 61.892 292.029 63.068V49.642H298.154ZM284.336 81.1C285.806 81.1 287.129 80.7733 288.305 80.12C289.481 79.434 290.412 78.4703 291.098 77.229C291.784 75.9877 292.127 74.5503 292.127 72.917C292.127 71.2837 291.784 69.8463 291.098 68.605C290.412 67.3637 289.481 66.4163 288.305 65.763C287.129 65.077 285.806 64.734 284.336 64.734C282.866 64.734 281.543 65.077 280.367 65.763C279.191 66.4163 278.26 67.3637 277.574 68.605C276.888 69.8463 276.545 71.2837 276.545 72.917C276.545 74.5503 276.888 75.9877 277.574 77.229C278.26 78.4703 279.191 79.434 280.367 80.12C281.543 80.7733 282.866 81.1 284.336 81.1ZM328.969 86.49C326.323 86.49 323.759 86.1143 321.276 85.363C318.826 84.6117 316.883 83.6153 315.445 82.374L317.65 77.425C319.055 78.5357 320.77 79.4503 322.795 80.169C324.853 80.855 326.911 81.198 328.969 81.198C331.517 81.198 333.412 80.7897 334.653 79.973C335.927 79.1563 336.564 78.0783 336.564 76.739C336.564 75.759 336.205 74.9587 335.486 74.338C334.8 73.6847 333.918 73.1783 332.84 72.819C331.762 72.4597 330.292 72.0513 328.43 71.594C325.817 70.9733 323.694 70.3527 322.06 69.732C320.46 69.1113 319.071 68.1477 317.895 66.841C316.752 65.5017 316.18 63.705 316.18 61.451C316.18 59.5563 316.687 57.8413 317.699 56.306C318.745 54.738 320.296 53.4967 322.354 52.582C324.445 51.6673 326.993 51.21 329.998 51.21C332.089 51.21 334.147 51.4713 336.172 51.994C338.198 52.5167 339.945 53.268 341.415 54.248L339.406 59.197C337.904 58.315 336.336 57.6453 334.702 57.188C333.069 56.7307 331.485 56.502 329.949 56.502C327.434 56.502 325.556 56.9267 324.314 57.776C323.106 58.6253 322.501 59.7523 322.501 61.157C322.501 62.137 322.844 62.9373 323.53 63.558C324.249 64.1787 325.147 64.6687 326.225 65.028C327.303 65.3873 328.773 65.7957 330.635 66.253C333.183 66.841 335.274 67.4617 336.907 68.115C338.541 68.7357 339.929 69.6993 341.072 71.006C342.248 72.3127 342.836 74.0767 342.836 76.298C342.836 78.1927 342.314 79.9077 341.268 81.443C340.256 82.9783 338.704 84.2033 336.613 85.118C334.523 86.0327 331.975 86.49 328.969 86.49ZM363.314 84.579C362.595 85.167 361.713 85.608 360.668 85.902C359.655 86.196 358.577 86.343 357.434 86.343C354.559 86.343 352.338 85.5917 350.77 84.089C349.202 82.5863 348.418 80.3977 348.418 77.523V64.93H344.106V60.03H348.418V54.052H354.543V60.03H361.55V64.93H354.543V77.376C354.543 78.65 354.853 79.63 355.474 80.316C356.094 80.9693 356.993 81.296 358.169 81.296C359.541 81.296 360.684 80.9367 361.599 80.218L363.314 84.579ZM378.271 86.343C375.625 86.343 373.24 85.7713 371.117 84.628C368.994 83.4847 367.328 81.9003 366.119 79.875C364.943 77.817 364.355 75.4977 364.355 72.917C364.355 70.3363 364.943 68.0333 366.119 66.008C367.328 63.9827 368.994 62.3983 371.117 61.255C373.24 60.1117 375.625 59.54 378.271 59.54C380.95 59.54 383.351 60.1117 385.474 61.255C387.597 62.3983 389.247 63.9827 390.423 66.008C391.632 68.0333 392.236 70.3363 392.236 72.917C392.236 75.4977 391.632 77.817 390.423 79.875C389.247 81.9003 387.597 83.4847 385.474 84.628C383.351 85.7713 380.95 86.343 378.271 86.343ZM378.271 81.1C380.525 81.1 382.387 80.3487 383.857 78.846C385.327 77.3433 386.062 75.367 386.062 72.917C386.062 70.467 385.327 68.4907 383.857 66.988C382.387 65.4853 380.525 64.734 378.271 64.734C376.017 64.734 374.155 65.4853 372.685 66.988C371.248 68.4907 370.529 70.467 370.529 72.917C370.529 75.367 371.248 77.3433 372.685 78.846C374.155 80.3487 376.017 81.1 378.271 81.1ZM402.944 63.656C404.708 60.912 407.811 59.54 412.254 59.54V65.371C411.731 65.273 411.258 65.224 410.833 65.224C408.448 65.224 406.586 65.9263 405.247 67.331C403.908 68.703 403.238 70.6957 403.238 73.309V86H397.113V59.834H402.944V63.656ZM440.829 73.064C440.829 73.4887 440.796 74.093 440.731 74.877H420.2C420.559 76.8043 421.49 78.3397 422.993 79.483C424.528 80.5937 426.423 81.149 428.677 81.149C431.551 81.149 433.92 80.2017 435.782 78.307L439.065 82.08C437.889 83.4847 436.402 84.5463 434.606 85.265C432.809 85.9837 430.784 86.343 428.53 86.343C425.655 86.343 423.123 85.7713 420.935 84.628C418.746 83.4847 417.047 81.9003 415.839 79.875C414.663 77.817 414.075 75.4977 414.075 72.917C414.075 70.369 414.646 68.0823 415.79 66.057C416.966 63.999 418.583 62.3983 420.641 61.255C422.699 60.1117 425.018 59.54 427.599 59.54C430.147 59.54 432.417 60.1117 434.41 61.255C436.435 62.3657 438.003 63.95 439.114 66.008C440.257 68.0333 440.829 70.3853 440.829 73.064ZM427.599 64.44C425.639 64.44 423.973 65.028 422.601 66.204C421.261 67.3473 420.445 68.8827 420.151 70.81H434.998C434.736 68.9153 433.936 67.38 432.597 66.204C431.257 65.028 429.591 64.44 427.599 64.44Z" fill="#666666"></path>
  <g clip-path="url(#clip0_16623_30947)">
    <path d="M164.796 19.9844C164.796 25.4619 160.567 29.4844 155.409 29.4844C150.25 29.4844 146.021 25.4619 146.021 19.9844C146.021 14.4641 150.25 10.4844 155.409 10.4844C160.567 10.4844 164.796 14.4641 164.796 19.9844ZM160.694 19.9844C160.694 16.561 158.242 14.2501 155.409 14.2501C152.576 14.2501 150.123 16.6037 150.123 19.9844C150.123 23.365 152.576 25.7186 155.409 25.7186C158.242 25.7186 160.694 23.365 160.694 19.9844Z" fill="#EA4335"></path>
    <path d="M185.093 19.9844C185.093 25.4619 180.864 29.4844 175.706 29.4844C170.547 29.4844 166.318 25.4619 166.318 19.9844C166.318 14.5069 170.547 10.4844 175.706 10.4844C180.864 10.4844 185.093 14.4641 185.093 19.9844ZM180.949 19.9844C180.949 16.561 178.496 14.2501 175.663 14.2501C172.83 14.2501 170.378 16.6037 170.378 19.9844C170.378 23.365 172.83 25.7186 175.663 25.7186C178.496 25.7186 180.949 23.365 180.949 19.9844Z" fill="#FBBC05"></path>
    <path d="M204.545 11.0835V28.115C204.545 35.133 200.444 38.0001 195.623 38.0001C191.056 38.0001 188.35 34.9191 187.293 32.3943L190.887 30.8965C191.522 32.4371 193.086 34.2772 195.623 34.2772C198.71 34.2772 200.613 32.3515 200.613 28.7141V27.3447H200.486C199.556 28.5001 197.78 29.4844 195.539 29.4844C190.845 29.4844 186.574 25.3335 186.574 20.0272C186.574 14.6781 190.887 10.4844 195.539 10.4844C197.78 10.4844 199.556 11.5114 200.486 12.624H200.613V11.0835H204.545ZM200.909 20.0272C200.909 16.6893 198.71 14.2501 195.919 14.2501C193.086 14.2501 190.676 16.6893 190.676 20.0272C190.676 23.3222 193.044 25.7614 195.919 25.7614C198.71 25.7614 200.909 23.3222 200.909 20.0272Z" fill="#4285F4"></path>
    <path d="M210.972 1.06934V28.8846H206.955V1.06934H210.972Z" fill="#34A853"></path>
    <path d="M226.66 23.1081L229.873 25.2477C228.859 26.7883 226.364 29.4414 222.051 29.4414C216.723 29.4414 212.748 25.2905 212.748 19.9414C212.748 14.2928 216.765 10.4414 221.586 10.4414C226.448 10.4414 228.816 14.3783 229.62 16.4752L230.043 17.545L217.484 22.8513C218.457 24.777 219.936 25.7184 222.051 25.7184C224.123 25.7184 225.56 24.6914 226.66 23.1081ZM216.807 19.6846L225.18 16.1756C224.715 14.9774 223.319 14.1644 221.712 14.1644C219.598 14.1644 216.681 16.0473 216.807 19.6846Z" fill="#EA4335"></path>
    <path d="M130.757 17.5023V13.4797H144.162C144.289 14.1644 144.373 15.0203 144.373 15.9189C144.373 18.9572 143.57 22.6802 140.906 25.3333C138.369 28.0293 135.07 29.4842 130.757 29.4842C122.766 29.4842 116 22.8513 116 14.7207C116 6.59009 122.766 0 130.757 0C135.197 0 138.369 1.7545 140.737 4.06531L137.946 6.88964C136.254 5.26351 133.929 4.02252 130.757 4.02252C124.88 4.02252 120.313 8.81532 120.313 14.7207C120.313 20.6261 124.88 25.4189 130.757 25.4189C134.563 25.4189 136.72 23.8784 138.115 22.4662C139.257 21.3108 139.976 19.6847 140.272 17.4595L130.757 17.5023Z" fill="#4285F4"></path>
  </g>
  <path d="M143.224 110.451L136.03 109.356L132.813 102.528C132.725 102.341 132.581 102.19 132.402 102.098C131.955 101.866 131.411 102.059 131.187 102.528L127.971 109.356L120.776 110.451C120.577 110.481 120.396 110.579 120.257 110.727C120.089 110.908 119.997 111.151 120 111.403C120.003 111.655 120.102 111.895 120.274 112.071L125.48 117.386L124.25 124.89C124.221 125.065 124.24 125.244 124.303 125.409C124.367 125.573 124.473 125.715 124.61 125.819C124.747 125.923 124.909 125.985 125.078 125.998C125.246 126.01 125.415 125.973 125.565 125.89L132 122.347L138.435 125.89C138.611 125.988 138.815 126.021 139.011 125.985C139.504 125.896 139.835 125.407 139.75 124.89L138.52 117.386L143.726 112.071C143.868 111.926 143.961 111.736 143.989 111.528C144.066 111.009 143.72 110.528 143.224 110.451Z" fill="#FFC107"></path>
  <path d="M175.224 110.451L168.03 109.356L164.813 102.528C164.725 102.341 164.581 102.19 164.402 102.098C163.955 101.866 163.411 102.059 163.187 102.528L159.971 109.356L152.776 110.451C152.577 110.481 152.396 110.579 152.257 110.727C152.089 110.908 151.997 111.151 152 111.403C152.003 111.655 152.102 111.895 152.274 112.071L157.48 117.386L156.25 124.89C156.221 125.065 156.24 125.244 156.303 125.409C156.367 125.573 156.473 125.715 156.61 125.819C156.747 125.923 156.909 125.985 157.078 125.998C157.246 126.01 157.415 125.973 157.565 125.89L164 122.347L170.435 125.89C170.611 125.988 170.815 126.021 171.011 125.985C171.504 125.896 171.835 125.407 171.75 124.89L170.52 117.386L175.726 112.071C175.868 111.926 175.961 111.736 175.989 111.528C176.066 111.009 175.72 110.528 175.224 110.451Z" fill="#FFC107"></path>
  <path d="M207.224 110.451L200.03 109.356L196.813 102.528C196.725 102.341 196.581 102.19 196.402 102.098C195.955 101.866 195.411 102.059 195.187 102.528L191.971 109.356L184.776 110.451C184.577 110.481 184.396 110.579 184.257 110.727C184.089 110.908 183.997 111.151 184 111.403C184.003 111.655 184.102 111.895 184.274 112.071L189.48 117.386L188.25 124.89C188.221 125.065 188.24 125.244 188.303 125.409C188.367 125.573 188.473 125.715 188.61 125.819C188.747 125.923 188.909 125.985 189.078 125.998C189.246 126.01 189.415 125.973 189.565 125.89L196 122.347L202.435 125.89C202.611 125.988 202.815 126.021 203.011 125.985C203.504 125.896 203.835 125.407 203.75 124.89L202.52 117.386L207.726 112.071C207.868 111.926 207.961 111.736 207.989 111.528C208.066 111.009 207.72 110.528 207.224 110.451Z" fill="#FFC107"></path>
  <path d="M239.224 110.451L232.03 109.356L228.813 102.528C228.725 102.341 228.581 102.19 228.402 102.098C227.955 101.866 227.411 102.059 227.187 102.528L223.971 109.356L216.776 110.451C216.577 110.481 216.396 110.579 216.257 110.727C216.089 110.908 215.997 111.151 216 111.403C216.003 111.655 216.102 111.895 216.274 112.071L221.48 117.386L220.25 124.89C220.221 125.065 220.24 125.244 220.303 125.409C220.367 125.573 220.473 125.715 220.61 125.819C220.747 125.923 220.909 125.985 221.078 125.998C221.246 126.01 221.415 125.973 221.565 125.89L228 122.347L234.435 125.89C234.611 125.988 234.815 126.021 235.011 125.985C235.504 125.896 235.835 125.407 235.75 124.89L234.52 117.386L239.726 112.071C239.868 111.926 239.961 111.736 239.989 111.528C240.066 111.009 239.72 110.528 239.224 110.451Z" fill="#FFC107"></path>
  <path d="M271.224 110.451L264.03 109.356L260.813 102.528C260.725 102.341 260.581 102.19 260.402 102.098C259.955 101.866 259.411 102.059 259.187 102.528L255.971 109.356L248.776 110.451C248.577 110.481 248.396 110.579 248.257 110.727C248.089 110.908 247.997 111.151 248 111.403C248.003 111.655 248.102 111.895 248.274 112.071L253.48 117.386L252.25 124.89C252.221 125.065 252.24 125.244 252.303 125.409C252.367 125.573 252.473 125.715 252.61 125.819C252.747 125.923 252.909 125.985 253.078 125.998C253.246 126.01 253.415 125.973 253.565 125.89L260 122.347L266.435 125.89C266.611 125.988 266.815 126.021 267.011 125.985C267.504 125.896 267.835 125.407 267.75 124.89L266.52 117.386L271.726 112.071C271.868 111.926 271.961 111.736 271.989 111.528C272.066 111.009 271.72 110.528 271.224 110.451Z" fill="#FFC107"></path>
  <g clip-path="url(#clip1_16623_30947)">
    <path d="M12.6 68H0C0 95.6 22.4 118 50 118V105.4C29.4 105.4 12.6 88.7 12.6 68Z" fill="#1F87FC"></path>
    <path d="M50 30.6V18C22.4 18 0 40.4 0 68H12.6C12.6 47.4 29.4 30.6 50 30.6Z" fill="#EE312A"></path>
    <path d="M49.9996 105.4C70.6551 105.4 87.3996 88.6551 87.3996 67.9996C87.3996 47.3442 70.6551 30.5996 49.9996 30.5996C29.3442 30.5996 12.5996 47.3442 12.5996 67.9996C12.5996 88.6551 29.3442 105.4 49.9996 105.4Z" fill="white"></path>
    <path d="M50 18V30.6C63.7 30.6 75.7 38 82.2 49L90.5 38.8C81.5 26.2 66.7 18 50 18Z" fill="#FFB100"></path>
    <path d="M50 105.4V118C58.2 118 65.8 116 72.6 112.6L63.5 102.9C59.4 104.5 54.8 105.4 50 105.4Z" fill="#00A050"></path>
    <path opacity="0.26" d="M87.3996 68C87.3996 61.1 85.4996 54.6 82.1996 49L50.0996 88.4L63.5996 102.8C77.4996 97.5 87.3996 83.9 87.3996 68Z" fill="black"></path>
    <path d="M99.9992 68.0002C99.9992 57.1002 96.4992 47.0002 90.4992 38.7002L82.1992 49.0002C85.4992 54.6002 87.3992 61.1002 87.3992 68.0002H99.9992Z" fill="#FFB100"></path>
    <path opacity="0.3" d="M99.9992 68.0002C99.9992 57.1002 96.4992 47.0002 90.4992 38.7002L82.1992 49.0002C85.4992 54.6002 87.3992 61.1002 87.3992 68.0002H99.9992Z" fill="black"></path>
    <path d="M100 68H87.4C87.4 83.9 77.5 97.4 63.5 102.9L72.6 112.6C88.9 104.4 100 87.5 100 68Z" fill="#00A050"></path>
    <path opacity="0.3" d="M100 68H87.4C87.4 83.9 77.5 97.4 63.5 102.9L72.6 112.6C88.9 104.4 100 87.5 100 68Z" fill="black"></path>
    <path d="M23.9004 64.0998L31.1004 55.8998L47.9004 66.6998L93.5004 21.2998L100 27.0998L50.1004 88.3998L23.9004 64.0998Z" fill="#00A050"></path>
  </g>
  <defs>
    <clipPath id="clip0_16623_30947">
      <rect width="114" height="38" fill="white" transform="translate(116)"></rect>
    </clipPath>
    <clipPath id="clip1_16623_30947">
      <rect width="100" height="100" fill="white" transform="translate(0 18)"></rect>
    </clipPath>
  </defs>
</svg>
